<svg width="77" height="61" viewBox="0 0 77 61" fill="none" xmlns="http://www.w3.org/2000/svg">
<path d="M73.15 7.625H3.85C1.72408 7.625 0 9.33229 0 11.4375V49.5625C0 51.6677 1.72408 53.375 3.85 53.375H73.15C75.2759 53.375 77 51.6677 77 49.5625V11.4375C77 9.33229 75.2759 7.625 73.15 7.625ZM5.775 47.6562V40.0312C10.028 40.0312 13.475 43.4446 13.475 47.6562H5.775ZM5.775 20.9688V13.3438H13.475C13.475 17.5554 10.028 20.9688 5.775 20.9688ZM38.5 41.9375C33.1834 41.9375 28.875 36.8156 28.875 30.5C28.875 24.1832 33.1846 19.0625 38.5 19.0625C43.8154 19.0625 48.125 24.1832 48.125 30.5C48.125 36.818 43.8142 41.9375 38.5 41.9375ZM71.225 47.6562H63.525C63.525 43.4446 66.972 40.0312 71.225 40.0312V47.6562ZM71.225 20.9688C66.972 20.9688 63.525 17.5554 63.525 13.3438H71.225V20.9688Z" fill="#0FAF6A"/>
</svg>
